<svg width="527" height="70" viewBox="0 0 527 70" fill="none" xmlns="http://www.w3.org/2000/svg">
<g filter="url(#filter0_d_253_513)">
<path d="M4.06219 62.7076L6.40748 4.11017C6.44 3.2978 7.11378 2.65922 7.92672 2.6703L59.0455 3.36688H224.182L373.591 4.37709L521.483 2.66793C522.318 2.65827 523 3.33262 523 4.16783V63.6177C523 64.3619 522.454 64.9935 521.718 65.1018L515.725 65.9829C515.648 65.9942 515.57 65.9995 515.492 65.9988L342.746 64.2613L167.831 64.9133L5.55502 64.2675C4.70542 64.2642 4.02821 63.5565 4.06219 62.7076Z" fill="white"/>
</g>
<path d="M1.5 2.82324C85.2889 2.82324 97.9831 3.00778 181.728 3.00778C265.517 3.00778 270.609 3.25975 354.398 3.25975C438.187 3.25975 440.711 2.82324 524.5 2.82324" stroke="black" stroke-width="3" stroke-miterlimit="10" stroke-linecap="round" stroke-linejoin="round"/>
<path d="M4 65.4016C90.5076 65.4016 90.5076 65.3071 176.969 65.3071C263.477 65.3071 263.477 64.9922 349.985 64.9922C436.492 64.9922 436.492 66.0001 523 66.0001" stroke="black" stroke-width="3" stroke-miterlimit="10" stroke-linecap="round" stroke-linejoin="round"/>
<path d="M523.831 65.6746C524.065 65.3785 523.286 2.24023 523.286 2.24023C523.286 2.24023 522.895 65.0788 523.027 65.6746C523.159 66.2704 523.643 65.9115 523.831 65.6746Z" stroke="black" stroke-width="3" stroke-miterlimit="10" stroke-linecap="round" stroke-linejoin="round"/>
<path d="M4.05012 65.4343C3.78316 65.1382 4.66993 2 4.66993 2C4.66993 2 5.11512 64.8385 4.96508 65.4343C4.81503 66.0302 4.26368 65.6712 4.05012 65.4343Z" stroke="black" stroke-width="3" stroke-miterlimit="10" stroke-linecap="round" stroke-linejoin="round"/>
<defs>
<filter id="filter0_d_253_513" x="4.06091" y="2.66797" width="522.939" height="67.3311" filterUnits="userSpaceOnUse" color-interpolation-filters="sRGB">
<feFlood flood-opacity="0" result="BackgroundImageFix"/>
<feColorMatrix in="SourceAlpha" type="matrix" values="0 0 0 0 0 0 0 0 0 0 0 0 0 0 0 0 0 0 127 0" result="hardAlpha"/>
<feOffset dx="4" dy="4"/>
<feColorMatrix type="matrix" values="0 0 0 0 0.694118 0 0 0 0 0.721569 0 0 0 0 0.741176 0 0 0 1 0"/>
<feBlend mode="multiply" in2="BackgroundImageFix" result="effect1_dropShadow_253_513"/>
<feBlend mode="normal" in="SourceGraphic" in2="effect1_dropShadow_253_513" result="shape"/>
</filter>
</defs>
</svg>
