<svg width="24" height="23" viewBox="0 0 24 23" fill="none" xmlns="http://www.w3.org/2000/svg">
<g filter="url(#filter0_d_280_298)">
<mask id="path-1-inside-1_280_298" fill="white">
<path d="M20.7633 10.537C20.0746 15.6078 19.2154 19.9513 12.3898 19.9513C6.58045 19.9513 3.70066 16.6284 2.67798 11.1534C1.65568 5.67846 2.88441 0.851585 8.55566 0.212842C14.2269 -0.425902 21.6676 3.87924 20.7633 10.537Z"/>
<path d="M21.9722 6.92375C22.3713 12.123 18.4336 21 11.608 21C3.98148 21 1.19093 16.7726 0.168247 11.2976C-0.85405 5.82268 2.88441 0.851585 8.55566 0.212842C14.2269 -0.425902 21.4402 -0.00850175 21.9722 6.92375Z"/>
</mask>
<path d="M20.7633 10.537C20.0746 15.6078 19.2154 19.9513 12.3898 19.9513C6.58045 19.9513 3.70066 16.6284 2.67798 11.1534C1.65568 5.67846 2.88441 0.851585 8.55566 0.212842C14.2269 -0.425902 21.6676 3.87924 20.7633 10.537Z" fill="white"/>
<path d="M21.9722 6.92375C22.3713 12.123 18.4336 21 11.608 21C3.98148 21 1.19093 16.7726 0.168247 11.2976C-0.85405 5.82268 2.88441 0.851585 8.55566 0.212842C14.2269 -0.425902 21.4402 -0.00850175 21.9722 6.92375Z" fill="white"/>
<path d="M20.7633 10.537L23.736 10.9408L20.7633 10.537ZM2.67798 11.1534L-0.271054 11.7041L-0.271016 11.7043L2.67798 11.1534ZM21.9722 6.92375L18.981 7.15331L21.9722 6.92375ZM0.168247 11.2976L-2.78078 11.8483L-2.78075 11.8485L0.168247 11.2976ZM17.7906 10.1333C17.429 12.7957 17.0886 14.4283 16.3869 15.474C15.9249 16.1623 15.0721 16.9513 12.3898 16.9513V22.9513C16.5331 22.9513 19.5227 21.5685 21.369 18.8174C22.9754 16.4237 23.4089 13.3491 23.736 10.9408L17.7906 10.1333ZM12.3898 16.9513C10.0913 16.9513 8.72305 16.314 7.81942 15.4441C6.85513 14.5159 6.07235 12.9869 5.62697 10.6026L-0.271016 11.7043C0.306286 14.7949 1.47474 17.6648 3.65836 19.7668C5.90262 21.9271 8.87892 22.9513 12.3898 22.9513V16.9513ZM5.62701 10.6028C5.16781 8.14353 5.31328 6.27486 5.84178 5.10224C6.25981 4.17474 7.0202 3.40475 8.89143 3.19399L8.2199 -2.76831C4.41987 -2.34032 1.73027 -0.377504 0.371693 2.63686C-0.876408 5.4061 -0.834155 8.68835 -0.271054 11.7041L5.62701 10.6028ZM8.89143 3.19399C10.9241 2.96505 13.4495 3.64213 15.3337 5.04501C17.1577 6.40311 18.059 8.15706 17.7906 10.1333L23.736 10.9408C24.3719 6.25921 22.005 2.5317 18.9169 0.232464C15.889 -2.02199 11.8585 -3.17811 8.2199 -2.76831L8.89143 3.19399ZM18.981 7.15331C19.1248 9.02654 18.4534 11.9173 16.9532 14.3251C15.4568 16.7267 13.5784 18 11.608 18V24C16.4631 24 19.9664 20.8348 22.0455 17.4981C24.1208 14.1675 25.2187 10.0202 24.9635 6.69419L18.981 7.15331ZM11.608 18C8.37644 18 6.59843 17.1233 5.51025 16.0581C4.35274 14.925 3.57309 13.1872 3.11724 10.7468L-2.78075 11.8485C-2.21392 14.883 -1.08695 17.9964 1.31311 20.3458C3.7825 22.763 7.213 24 11.608 24V18ZM3.11728 10.747C2.42533 7.04122 4.89404 3.64421 8.89143 3.19399L8.2199 -2.76831C0.87478 -1.94104 -4.13343 4.60413 -2.78078 11.8483L3.11728 10.747ZM8.89143 3.19399C11.6198 2.8867 14.2877 2.89998 16.2114 3.56468C17.1236 3.87985 17.7406 4.29869 18.1477 4.78543C18.5364 5.25012 18.8895 5.96062 18.981 7.15331L24.9635 6.69419C24.789 4.42076 24.041 2.47949 22.7503 0.936182C21.478 -0.585083 19.8375 -1.53046 18.1709 -2.10633C14.9371 -3.22371 11.1627 -3.09976 8.2199 -2.76831L8.89143 3.19399Z" fill="#020202" mask="url(#path-1-inside-1_280_298)"/>
</g>
<defs>
<filter id="filter0_d_280_298" x="0" y="0" width="24" height="23" filterUnits="userSpaceOnUse" color-interpolation-filters="sRGB">
<feFlood flood-opacity="0" result="BackgroundImageFix"/>
<feColorMatrix in="SourceAlpha" type="matrix" values="0 0 0 0 0 0 0 0 0 0 0 0 0 0 0 0 0 0 127 0" result="hardAlpha"/>
<feOffset dx="2" dy="2"/>
<feColorMatrix type="matrix" values="0 0 0 0 0.694118 0 0 0 0 0.721569 0 0 0 0 0.741176 0 0 0 1 0"/>
<feBlend mode="multiply" in2="BackgroundImageFix" result="effect1_dropShadow_280_298"/>
<feBlend mode="normal" in="SourceGraphic" in2="effect1_dropShadow_280_298" result="shape"/>
</filter>
</defs>
</svg>
