<svg width="201" height="182" viewBox="0 0 201 182" fill="none" xmlns="http://www.w3.org/2000/svg">
<path d="M2.00003 38.9972C34.4535 38.9972 34.4535 38.2053 66.8885 38.2053C99.3419 38.2053 99.3419 38 131.777 38C164.23 38 164.23 38.4986 196.665 38.4986" stroke="black" stroke-width="3" stroke-miterlimit="10" stroke-linecap="round" stroke-linejoin="round"/>
<path d="M2 2.99716C34.4535 2.99716 34.4535 2.2053 66.8884 2.2053C99.3419 2.2053 99.3419 2 131.777 2C164.23 2 164.23 2.49857 196.665 2.49857" stroke="black" stroke-width="3" stroke-miterlimit="10" stroke-linecap="round" stroke-linejoin="round"/>
<path d="M3.24405 60.2597C35.8985 60.2597 35.8985 60.9357 68.5356 60.9357C101.19 60.9357 101.19 59.9386 133.844 59.9386C166.499 59.9386 166.499 60.1244 199.153 60.1244" stroke="black" stroke-width="3" stroke-miterlimit="10" stroke-linecap="round" stroke-linejoin="round"/>
<path d="M2 178.638C26.3401 178.638 26.3401 178.894 50.6663 178.894C75.0064 178.894 75.0064 178.6 99.3326 178.6C123.673 178.6 123.673 179.597 147.999 179.597C172.339 179.597 172.339 179.239 196.665 179.239" stroke="black" stroke-width="3" stroke-miterlimit="10" stroke-linecap="round" stroke-linejoin="round"/>
<path d="M3.0881 118.935C3.0881 147.924 2.23202 147.924 2.23202 176.93L3.70013 155.537C4.00001 136.678 4.00001 116.036 4.00001 111.896C4 106.721 2.80051 61.1826 3.10038 56.0078C3.34028 51.8679 2.49875 18.8974 2.04799 2.92969C2.048 31.9352 1.99999 31.9352 1.99999 60.9407C2 89.9297 3.0881 89.9297 3.0881 118.935Z" stroke="black" stroke-width="3" stroke-miterlimit="10" stroke-linecap="round" stroke-linejoin="round"/>
<path d="M197.05 2.92969C197.05 32.4297 198.567 32.4297 198.567 61.9297C198.567 91.4297 199 91.4297 199 120.93C199 150.43 196.217 150.43 196.217 179.93C196.217 179.93 196 160.938 196 157.998C196 155.057 197.917 134.299 198.109 132.224C198.301 130.148 197.342 94.341 198.301 93.6491C199.068 93.0956 198.109 76.5818 197.534 68.3941C197.214 64.5886 196.844 56.7699 197.917 55.9396C198.991 55.1093 197.787 20.2537 197.05 2.92969Z" stroke="black" stroke-width="3" stroke-miterlimit="10" stroke-linecap="round" stroke-linejoin="round"/>
</svg>
