<svg width="32" height="23" viewBox="0 0 32 23" fill="none" xmlns="http://www.w3.org/2000/svg">
<g style="mix-blend-mode:multiply">
<path d="M28.8831 9.94425C30.4401 14.7931 24.212 20.1808 15.6485 20.7195C15.1173 20.7529 14.5981 20.7677 14.0915 20.7646C6.42989 20.7174 1.63544 16.5806 1.63544 11.0218C1.63544 5.09542 6.30646 2.40161 14.0915 1.86285C21.8765 1.32409 27.326 5.09538 28.8831 9.94425Z" fill="#DDFFFD"/>
<path d="M14.0915 1.86285C6.30646 2.40161 1.63544 5.09542 1.63544 11.0218C1.63544 16.5806 6.42989 20.7174 14.0915 20.7646M14.0915 1.86285C21.8765 1.32409 27.326 5.09538 28.8831 9.94425C30.4401 14.7931 24.212 20.1808 15.6485 20.7195C15.1173 20.7529 14.5981 20.7677 14.0915 20.7646M14.0915 1.86285C10.199 2.04243 2.41394 4.12562 2.41394 11.0218C2.41394 19.642 9.42047 20.7646 14.0915 20.7646M14.0915 1.86285C19.541 1.86288 28.1045 4.01787 29.6616 11.5605C30.9072 17.5947 21.8765 20.1807 17.2055 20.7195" stroke="#00CFC3" stroke-width="3"/>
</g>
</svg>
